<?xml version="1.0" encoding="UTF-8" standalone="no"?>
<!-- Created with Inkscape (http://www.inkscape.org/) -->

<svg
   xmlns:osb="http://www.openswatchbook.org/uri/2009/osb"
   xmlns:dc="http://purl.org/dc/elements/1.1/"
   xmlns:cc="http://creativecommons.org/ns#"
   xmlns:rdf="http://www.w3.org/1999/02/22-rdf-syntax-ns#"
   xmlns:svg="http://www.w3.org/2000/svg"
   xmlns="http://www.w3.org/2000/svg"
   xmlns:xlink="http://www.w3.org/1999/xlink"
   xmlns:sodipodi="http://sodipodi.sourceforge.net/DTD/sodipodi-0.dtd"
   xmlns:inkscape="http://www.inkscape.org/namespaces/inkscape"
   width="506.18387"
   height="664.44495"
   id="svg2"
   version="1.1"
   inkscape:version="0.48.5 r10040"
   sodipodi:docname="icon.svg"
   inkscape:export-filename="/home/geecko/Documents/Android/QuickLyric/QuickLyric/src/main/res/drawable-mdpi/ic_quicklyric.png"
   inkscape:export-xdpi="26.68"
   inkscape:export-ydpi="26.68">
  <defs
     id="defs4">
    <linearGradient
       id="linearGradient6606">
      <stop
         style="stop-color:#fbe29d;stop-opacity:1;"
         offset="0"
         id="stop6608" />
      <stop
         id="stop6616"
         offset="0.99483639"
         style="stop-color:#fbe29d;stop-opacity:1;" />
      <stop
         style="stop-color:#f0d27e;stop-opacity:1;"
         offset="1"
         id="stop6610" />
    </linearGradient>
    <linearGradient
       id="linearGradient6080">
      <stop
         style="stop-color:#ffffff;stop-opacity:0;"
         offset="0"
         id="stop6082" />
      <stop
         style="stop-color:#373737;stop-opacity:0.09803922;"
         offset="1"
         id="stop6084" />
    </linearGradient>
    <linearGradient
       id="linearGradient6063">
      <stop
         id="stop6065"
         offset="0"
         style="stop-color:#f5bc1a;stop-opacity:1;" />
      <stop
         style="stop-color:#f4b70b;stop-opacity:1"
         offset="1"
         id="stop6067" />
    </linearGradient>
    <linearGradient
       id="linearGradient6049">
      <stop
         id="stop6051"
         offset="0"
         style="stop-color:#f7c948;stop-opacity:1;" />
      <stop
         style="stop-color:#d9a10a;stop-opacity:1;"
         offset="1"
         id="stop6053" />
    </linearGradient>
    <marker
       inkscape:stockid="DotL"
       orient="auto"
       refY="0"
       refX="0"
       id="DotL"
       style="overflow:visible">
      <path
         id="path4123"
         d="m -2.5,-1 c 0,2.76 -2.24,5 -5,5 -2.76,0 -5,-2.24 -5,-5 0,-2.76 2.24,-5 5,-5 2.76,0 5,2.24 5,5 z"
         style="fill-rule:evenodd;stroke:#000000;stroke-width:1pt"
         transform="matrix(0.8,0,0,0.8,5.92,0.8)"
         inkscape:connector-curvature="0" />
    </marker>
    <linearGradient
       id="linearGradient4032"
       osb:paint="gradient">
      <stop
         id="stop4034"
         offset="0"
         style="stop-color:#f6c83a;stop-opacity:1;" />
      <stop
         style="stop-color:#d9a10a;stop-opacity:1;"
         offset="1"
         id="stop4036" />
    </linearGradient>
    <linearGradient
       id="linearGradient4020">
      <stop
         style="stop-color:#ffc437;stop-opacity:1;"
         offset="0"
         id="stop4022" />
      <stop
         id="stop4028"
         offset="1"
         style="stop-color:#fea100;stop-opacity:1;" />
    </linearGradient>
    <linearGradient
       inkscape:collect="always"
       xlink:href="#linearGradient6080"
       id="linearGradient6093"
       gradientUnits="userSpaceOnUse"
       gradientTransform="matrix(-0.77983779,-0.73920773,0.64843058,-0.89953156,-11.67838,-77.31483)"
       x1="-1422.8611"
       y1="462.46756"
       x2="-1338.507"
       y2="518.88605" />
    <linearGradient
       inkscape:collect="always"
       xlink:href="#linearGradient4020"
       id="linearGradient6130"
       gradientUnits="userSpaceOnUse"
       gradientTransform="matrix(1,0,0,-1.308149,-821.875,1126.648)"
       x1="1193.1604"
       y1="742.55151"
       x2="1193.1604"
       y2="237.25021" />
    <linearGradient
       inkscape:collect="always"
       xlink:href="#linearGradient6049"
       id="linearGradient6132"
       gradientUnits="userSpaceOnUse"
       gradientTransform="matrix(0,-1.308149,-1,0,857.2656,1754.3755)"
       x1="1222.4109"
       y1="485.98022"
       x2="717.10956"
       y2="485.98022" />
    <style
       id="style6"
       type="text/css">
   
    .str0 {stroke:#131516;stroke-width:3}
    .str1 {stroke:#131516;stroke-width:42}
    .fil1 {fill:none}
    .fil0 {fill:#131516}
   
  </style>
    <linearGradient
       inkscape:collect="always"
       xlink:href="#linearGradient6080"
       id="linearGradient6575"
       gradientUnits="userSpaceOnUse"
       gradientTransform="matrix(-0.77983779,-0.73920773,0.64843058,-0.89953156,-833.55338,-158.56483)"
       x1="-1525.4066"
       y1="517.40607"
       x2="-1302.3241"
       y2="548.76239" />
    <linearGradient
       inkscape:collect="always"
       xlink:href="#linearGradient6606"
       id="linearGradient6612"
       x1="314.0372"
       y1="447.85846"
       x2="527.64105"
       y2="256.64432"
       gradientUnits="userSpaceOnUse"
       gradientTransform="matrix(0.99329861,0,0,1.0006072,2.9127532,0.03447156)" />
    <filter
       inkscape:label="Drop Shadow"
       id="filter6896"
       color-interpolation-filters="sRGB">
      <feFlood
         flood-opacity="0.36"
         flood-color="rgb(0,0,0)"
         result="flood"
         id="feFlood6898" />
      <feComposite
         in="flood"
         in2="SourceGraphic"
         operator="in"
         result="composite1"
         id="feComposite6900" />
      <feGaussianBlur
         stdDeviation="8"
         result="blur"
         id="feGaussianBlur6902" />
      <feOffset
         dx="4"
         dy="4"
         result="offset"
         id="feOffset6904" />
      <feComposite
         in="SourceGraphic"
         in2="offset"
         operator="over"
         result="composite2"
         id="feComposite6906" />
    </filter>
    <linearGradient
       inkscape:collect="always"
       xlink:href="#linearGradient6080"
       id="linearGradient6929"
       x1="663.24261"
       y1="508.85013"
       x2="335.06946"
       y2="477.61346"
       gradientUnits="userSpaceOnUse"
       gradientTransform="matrix(0.79688459,0,0,0.87019766,339.66214,-261.44901)" />
    <linearGradient
       inkscape:collect="always"
       xlink:href="#linearGradient6080"
       id="linearGradient6934"
       gradientUnits="userSpaceOnUse"
       gradientTransform="matrix(0.61660552,0.50479964,-0.40379698,0.77083848,384.14036,-16.432193)"
       x1="663.24261"
       y1="508.85013"
       x2="335.06946"
       y2="477.61346" />
    <linearGradient
       inkscape:collect="always"
       xlink:href="#linearGradient6080"
       id="linearGradient6939"
       gradientUnits="userSpaceOnUse"
       gradientTransform="matrix(0.61660552,0.50479964,-0.40379698,0.77083848,384.14036,-16.432193)"
       x1="663.24261"
       y1="508.85013"
       x2="335.06946"
       y2="477.61346" />
    <linearGradient
       inkscape:collect="always"
       xlink:href="#linearGradient6080"
       id="linearGradient6969"
       gradientUnits="userSpaceOnUse"
       gradientTransform="matrix(0.61660552,0.50479964,-0.40379698,0.77083848,384.14036,-16.432193)"
       x1="663.24261"
       y1="508.85013"
       x2="335.06946"
       y2="477.61346" />
    <linearGradient
       inkscape:collect="always"
       xlink:href="#linearGradient6080"
       id="linearGradient7011"
       gradientUnits="userSpaceOnUse"
       gradientTransform="matrix(0.61660552,0.50479964,-0.40379698,0.77083848,384.14036,-16.432193)"
       x1="663.24261"
       y1="508.85013"
       x2="335.06946"
       y2="477.61346" />
    <linearGradient
       inkscape:collect="always"
       xlink:href="#linearGradient6080"
       id="linearGradient7035"
       gradientUnits="userSpaceOnUse"
       gradientTransform="matrix(0.61660552,0.50479964,-0.40379698,0.77083848,384.14036,-16.432193)"
       x1="663.24261"
       y1="508.85013"
       x2="335.06946"
       y2="477.61346" />
    <linearGradient
       inkscape:collect="always"
       xlink:href="#linearGradient6080"
       id="linearGradient7042"
       gradientUnits="userSpaceOnUse"
       gradientTransform="matrix(-0.77983779,-0.73920773,0.64843058,-0.89953156,-833.55338,-158.56483)"
       x1="-1525.4066"
       y1="517.40607"
       x2="-1302.3241"
       y2="548.76239" />
    <linearGradient
       inkscape:collect="always"
       xlink:href="#linearGradient4020"
       id="linearGradient7045"
       gradientUnits="userSpaceOnUse"
       gradientTransform="matrix(1,0,0,-1.308149,-821.875,1126.648)"
       x1="1193.1604"
       y1="742.55151"
       x2="1193.1604"
       y2="237.25021" />
    <linearGradient
       inkscape:collect="always"
       xlink:href="#linearGradient6049"
       id="linearGradient7047"
       gradientUnits="userSpaceOnUse"
       gradientTransform="matrix(0,-1.308149,-1,0,857.2656,1754.3755)"
       x1="1222.4109"
       y1="485.98022"
       x2="717.10956"
       y2="485.98022" />
    <linearGradient
       inkscape:collect="always"
       xlink:href="#linearGradient6080"
       id="linearGradient7049"
       gradientUnits="userSpaceOnUse"
       gradientTransform="matrix(0.61660552,0.50262351,-0.40379698,0.76751548,384.14036,-12.839222)"
       x1="663.24261"
       y1="508.85013"
       x2="335.06946"
       y2="477.61346" />
    <linearGradient
       inkscape:collect="always"
       xlink:href="#linearGradient6080"
       id="linearGradient7051"
       gradientUnits="userSpaceOnUse"
       gradientTransform="matrix(-0.77983779,-0.73920773,0.64843058,-0.89953156,-833.55338,-158.56483)"
       x1="-1525.4066"
       y1="517.40607"
       x2="-1302.3241"
       y2="548.76239" />
    <linearGradient
       inkscape:collect="always"
       xlink:href="#linearGradient6606"
       id="linearGradient7053"
       gradientUnits="userSpaceOnUse"
       gradientTransform="matrix(0.99329861,0,0,1.0006072,2.9127532,0.03447156)"
       x1="314.0372"
       y1="447.85846"
       x2="527.64105"
       y2="256.64432" />
  </defs>
  <sodipodi:namedview
     id="base"
     pagecolor="#ffffff"
     bordercolor="#666666"
     borderopacity="1.0"
     inkscape:pageopacity="0.0"
     inkscape:pageshadow="2"
     inkscape:zoom="0.87087522"
     inkscape:cx="248.98451"
     inkscape:cy="298.75093"
     inkscape:document-units="px"
     inkscape:current-layer="layer6"
     showgrid="false"
     showguides="true"
     inkscape:window-width="1920"
     inkscape:window-height="1045"
     inkscape:window-x="0"
     inkscape:window-y="1115"
     inkscape:window-maximized="1"
     inkscape:showpageshadow="false"
     fit-margin-top="-2.6"
     fit-margin-left="0"
     fit-margin-right="0"
     fit-margin-bottom="0">
    <inkscape:grid
       type="xygrid"
       id="grid2985"
       empspacing="5"
       visible="true"
       enabled="true"
       snapvisiblegridlinesonly="true"
       originx="-111.57204px"
       originy="-233.90294px" />
  </sodipodi:namedview>
  <metadata
     id="metadata7">
    <rdf:RDF>
      <cc:Work
         rdf:about="">
        <dc:format>image/svg+xml</dc:format>
        <dc:type
           rdf:resource="http://purl.org/dc/dcmitype/StillImage" />
        <dc:title></dc:title>
      </cc:Work>
    </rdf:RDF>
  </metadata>
  <g
     inkscape:groupmode="layer"
     id="layer2"
     inkscape:label="Vector"
     style="display:inline"
     transform="translate(-111.57204,-154.01426)">
    <path
       style="fill:url(#linearGradient7045);fill-opacity:1;fill-rule:evenodd;stroke:url(#linearGradient7047);stroke-width:2.85592723;stroke-linejoin:miter;stroke-miterlimit:4;stroke-opacity:1;stroke-dasharray:none;stroke-dashoffset:0;marker-start:none"
       clip-path="none"
       d="M 152.9375,155.625 C 130.80411,155.625 113,178.88997 113,207.84375 l 0,556.9375 c 0,28.95379 17.80411,52.25 39.9375,52.25 l 423.4375,0 c 22.1334,0 39.9375,-23.29621 39.9375,-52.25 l 0,-404.65625 c 0.14005,-0.0217 -178.0313,-204.5 -178.0313,-204.5 z"
       id="rect3200"
       inkscape:connector-curvature="0"
       sodipodi:nodetypes="ssssssccs"
       inkscape:export-filename="/home/geecko/Pictures/icon.png"
       inkscape:export-xdpi="190"
       inkscape:export-ydpi="190" />
  </g>
  <g
     inkscape:groupmode="layer"
     id="layer8"
     inkscape:label="MusicKeyShadow"
     style="display:inline"
     transform="translate(-111.57204,-154.01426)">
    <path
       style="fill:url(#linearGradient7049);fill-opacity:1;fill-rule:evenodd;stroke:none"
       d="M 353.28125,203.71788 292.9375,318.40882 c 0.51505,0.0111 0.92525,0.0271 1.03125,0.0622 2.285,0.75838 0.51259,1.08298 1.125,2.30252 0.24208,0.48207 0.91418,0.66921 1.15625,1.15127 0.34235,0.68175 -0.5413,1.73245 0,2.27142 0.27065,0.26948 0.8856,-0.26949 1.15625,0 0.31419,0.31283 -0.31146,3.95371 0,4.57394 0.24208,0.48207 0.91418,0.66921 1.15625,1.15127 0.22764,0.45332 -0.23475,3.18894 0,3.42268 0.27065,0.26948 0.85435,-0.26949 1.125,0 0.27631,0.27512 -0.27631,4.29883 0,4.57395 0.27065,0.26948 0.8856,-0.26949 1.15625,0 0.27065,0.26948 0,0.77017 0,1.15126 0,0.76222 -0.34234,1.58968 0,2.27142 0.17118,0.34087 0.8856,-0.26949 1.15625,0 0.23475,0.23374 -0.22764,2.96937 0,3.42268 0.24208,0.48207 0.91418,0.6692 1.15625,1.15127 0.17118,0.34087 -0.17117,0.8104 0,1.15126 0.24208,0.48207 0.88293,0.66921 1.125,1.15127 0.34235,0.68175 -0.5413,1.73245 0,2.27141 0.27065,0.26947 0.8856,-0.26948 1.15625,0 0.23475,0.23373 -0.22764,2.96937 0,3.42269 0.24208,0.48206 0.91418,0.66918 1.15625,1.15126 0.34235,0.68174 -0.34234,1.62079 0,2.30253 0.24208,0.48206 0.91418,0.63807 1.15625,1.12015 0.17118,0.34087 -0.17117,0.81039 0,1.15127 0.24208,0.48206 0.88293,0.66919 1.125,1.15126 0.34235,0.68174 -0.34234,1.58967 0,2.27142 0.24208,0.48206 0.91418,0.66919 1.15625,1.15127 0.17118,0.34086 -0.17117,0.81039 0,1.15126 0.24208,0.48206 0.91418,0.66919 1.15625,1.15126 0.17118,0.34087 -0.17117,0.77928 0,1.12016 0.24208,0.48206 0.91418,0.66918 1.15625,1.15126 0.17118,0.34087 -0.17117,0.81039 0,1.15127 0.24208,0.48206 0.88293,0.66919 1.125,1.15126 0.22764,0.45332 -0.23474,3.18895 0,3.42268 0.27065,0.26948 0.8856,-0.26949 1.15625,0 0.76647,0.76315 -0.76646,1.50825 0,2.27142 0.27065,0.26948 0.8856,-0.26949 1.15625,0 0.3142,0.31283 -0.31146,3.95371 0,4.57395 0.24208,0.48206 0.91418,0.66919 1.15625,1.15126 0.22764,0.45332 -0.23474,3.18894 0,3.42269 0.27065,0.26947 0.85435,-0.26949 1.125,0 0.27064,0.26947 0,0.77014 0,1.15126 l 0,1.15126 0,6.84537 0,1.15126 c 0,0.38111 0.17117,0.8104 0,1.15127 -0.24208,0.48206 -0.88292,0.63808 -1.125,1.12014 -0.17117,0.34088 0.27065,0.88179 0,1.15127 -0.27064,0.26949 -0.8856,-0.26948 -1.15625,0 -0.27065,0.26949 0.17118,0.81039 0,1.15127 -0.24207,0.48206 -0.91417,0.6692 -1.15625,1.15126 -0.17117,0.34088 0.17118,0.77928 0,1.12015 -0.68896,1.37199 -2.74853,2.08182 -3.4375,3.4538 -0.17117,0.34087 0.27065,0.85067 0,1.12015 -0.27065,0.26949 -0.8856,-0.26948 -1.15625,0 -0.5413,0.53896 0.5413,1.76357 0,2.30253 -2.37581,2.36557 0.10819,-3.60696 -2.28125,1.15127 -0.17117,0.34087 0.27065,0.85067 0,1.12014 -0.60519,0.60259 -1.60037,0.67857 -2.3125,1.15127 -0.45038,0.29897 -0.67209,0.91024 -1.15625,1.15127 -0.34234,0.17044 -0.78265,-0.17044 -1.125,0 -1.37792,0.68599 -2.09082,2.73669 -3.46875,3.42267 -0.34235,0.17046 -0.85435,-0.26947 -1.125,0 -0.27065,0.26949 0.27065,0.88179 0,1.15128 -0.27065,0.26948 -0.8856,-0.26949 -1.15625,0 -0.27065,0.26948 0.27065,0.88177 0,1.15126 -0.27065,0.26948 -0.8139,-0.17043 -1.15625,0 -0.9683,0.48207 -1.2542,1.93055 -2.28125,2.27141 -0.72623,0.24105 -1.58627,-0.24102 -2.3125,0 -0.77755,0.25808 -2.56035,2.98601 -3.4375,3.42268 -0.68469,0.34089 -1.6278,-0.34086 -2.3125,0 -0.48415,0.24104 -0.64085,0.91024 -1.125,1.15127 -0.34235,0.17045 -0.8139,-0.17043 -1.15625,0 -0.48415,0.24104 -0.6721,0.91024 -1.15625,1.15127 -0.45528,0.22666 -3.20275,-0.23372 -3.4375,0 -0.27065,0.26948 0.27065,0.88178 0,1.15127 -0.27065,0.26947 -0.77349,0 -1.15625,0 -0.38276,0 -1.15625,0.3811 -1.15625,0 l -1.125,0 c -0.38276,0 -0.83778,0.2114 -1.15625,0 -2.03922,-1.35363 -3.83622,-3.04953 -5.75,-4.57395 -2.96303,-1.18231 -4.50124,1.79871 -6.875,2.27141 -1.12597,0.22423 -2.31153,-0.22421 -3.4375,0 -0.83925,0.16712 -1.54699,0.77017 -2.3125,1.15127 -1.14827,0.38111 -2.24359,0.95314 -3.4375,1.15127 -1.13265,0.18796 -2.30486,-0.18797 -3.4375,0 -1.19392,0.19812 -2.27484,0.92203 -3.46875,1.12014 -1.13265,0.18797 -2.28923,0 -3.4375,0 -1.14827,0.38112 -2.25063,0.91492 -3.4375,1.15127 -0.44475,0.0886 -4.40489,-0.094 -4.59375,0 -0.34235,0.17045 0.27065,0.88178 0,1.15127 -0.27065,0.26948 -0.7735,0 -1.15625,0 -0.0429,0 -0.27175,-10e-4 -0.34375,0 l -28.6875,54.51397 c 0.2124,0.157 0.48261,0.29034 0.5625,0.52897 0.17117,0.5113 0,1.07902 0,1.61799 0,0.26949 -0.12104,0.56797 0,0.80899 0.17117,0.34088 0.64132,0.46813 0.8125,0.80901 0.24207,0.48207 -0.17118,1.10668 0,1.61799 0.19138,0.57166 0.62112,1.04634 0.8125,1.61799 0.18616,0.55608 -0.23954,1.95 0,2.427 0.17117,0.34087 0.64132,0.46812 0.8125,0.80899 0.23953,0.47701 -0.18617,1.87091 0,2.427 0.19137,0.57166 0.58987,1.04632 0.78125,1.61799 0.24358,0.7276 -0.24359,1.69938 0,2.42699 0.12103,0.36155 0.64132,0.43701 0.8125,0.77789 0.24207,0.48206 -0.24208,1.13592 0,1.61799 0.17117,0.34087 0.64132,0.46812 0.8125,0.809 0.24207,0.48206 -0.24208,1.13592 0,1.61799 0.17117,0.34086 0.64133,0.46812 0.8125,0.809 0.25517,0.50812 -0.25516,2.72787 0,3.23598 0.17118,0.34089 0.64133,0.46814 0.8125,0.80901 0.12104,0.24103 -0.0856,0.55334 0,0.80899 0.19138,0.57167 0.62113,1.04634 0.8125,1.61799 0.0856,0.25566 -0.0856,0.55336 0,0.80901 0.19138,0.57166 0.62113,1.04633 0.8125,1.61799 0.0856,0.25566 -0.0856,0.55334 0,0.809 0.19138,0.57166 0.66572,1.0334 0.8125,1.61799 0.13129,0.52287 -0.13128,1.09512 0,1.618 0.98022,3.90395 0.38696,-0.0384 1.625,2.42698 0.24208,0.48207 -0.24207,1.13593 0,1.618 0.17118,0.34087 0.64133,0.46813 0.8125,0.809 0.12104,0.24102 -0.12104,0.56796 0,0.809 0.17118,0.34086 0.64133,0.46813 0.8125,0.809 0.10832,0.2157 -0.10832,1.40228 0,1.61799 0.17118,0.34088 0.64133,0.46813 0.8125,0.809 0.24208,0.48207 -0.38276,1.2369 0,1.61799 0.19138,0.19056 0.62112,-0.19056 0.8125,0 0.19138,0.19056 -0.19138,0.61845 0,0.809 0.19138,0.19055 0.69146,-0.24103 0.8125,0 0.24208,0.48208 -0.17117,1.10669 0,1.618 0.12104,0.36155 0.64133,0.46812 0.8125,0.80899 0.12104,0.24104 -0.12104,0.56796 0,0.809 0.17117,0.34088 0.64133,0.46813 0.8125,0.809 0.12104,0.24103 -0.12104,0.56796 0,0.80899 0.17117,0.34088 0.54185,0.53952 0.8125,0.809 0,0.26949 -0.12104,0.56796 0,0.809 0.17117,0.34087 0.64132,0.46813 0.8125,0.809 0.12104,0.24103 -0.12104,0.56796 0,0.80899 0.17117,0.34087 0.64132,0.46813 0.8125,0.809 0.12104,0.24104 -0.12104,0.56797 0,0.809 0.17117,0.34087 0.69146,0.44744 0.8125,0.809 0.17117,0.5113 -0.17118,1.10667 0,1.618 0.12104,0.36153 0.60018,0.49188 0.8125,0.80899 0.3357,0.50138 0.54185,1.07902 0.8125,1.61799 0,0.26949 -0.12104,0.56796 0,0.809 1.16124,2.31247 0.751,0.36538 0.75,0.0311 0.0634,0.0686 0.29064,0.61925 0.875,2.36477 0.17117,0.51131 -0.24208,1.13593 0,1.61799 0.34234,0.68175 1.28265,0.93626 1.625,1.618 0.24207,0.48207 -0.24208,1.13593 0,1.61799 0.34234,0.68175 1.28266,0.93624 1.625,1.618 0.43268,0.86162 -0.43267,0.75637 0,1.618 0.17118,0.34087 0.64133,0.46812 0.8125,0.80899 0.12104,0.24104 -0.12103,0.56796 0,0.809 1.16124,2.31247 0.75101,0.39639 0.75,0.0622 0.0644,0.0726 0.293,0.62629 0.875,2.36477 0.80595,2.40663 -1.92204,-1.65714 0.8125,2.42699 1.23866,1.84997 0.64382,-0.50388 1.625,2.42699 0.59736,1.78433 -1.03561,-0.22215 0.8125,1.618 0.12104,0.24103 -0.12104,0.56797 0,0.80899 0.17118,0.34088 0.64133,0.46814 0.8125,0.80901 0.12104,0.24103 -0.19138,0.61844 0,0.80899 0.19138,0.19056 0.62112,-0.19055 0.8125,0 0.19138,0.19056 -0.12104,0.56797 0,0.809 1.76552,3.51582 -0.14052,-1.89781 1.625,1.618 0.12104,0.24103 -0.12104,0.56797 0,0.80899 1.6896,3.36457 -0.0549,-0.86371 1.625,0.809 0.38276,0.38111 -0.38276,1.23688 0,1.61799 0.19138,0.19055 0.62112,-0.19055 0.8125,0 0.19138,0.19055 -0.12104,0.56796 0,0.809 0.17117,0.34087 0.64132,0.46812 0.8125,0.80899 0.12104,0.24104 -0.19138,0.61845 0,0.80901 0.42793,0.42608 1.7061,-0.79259 1.625,0.80899 0.3357,0.50138 0.4768,1.11661 0.8125,1.61799 0.21231,0.3171 0.54185,0.53952 0.8125,0.80901 0.5413,0.53896 1.01259,1.16066 1.625,1.61799 2.19084,1.63602 1.33334,-0.0125 4.0625,1.618 0.65643,0.39214 1.01259,1.16066 1.625,1.61799 0.48416,0.36154 1.0902,0.47475 1.59375,0.809 0.31848,0.2114 0.47015,0.63856 0.8125,0.809 0.24208,0.12051 0.62112,-0.19055 0.8125,0 0.19138,0.19055 -0.19138,0.61844 0,0.80899 0.19138,0.19056 0.57042,-0.1205 0.8125,0 0.34235,0.17044 0.47015,0.63856 0.8125,0.80899 0.24208,0.12053 0.62112,-0.19053 0.8125,0 0.19138,0.19056 -0.24208,0.68849 0,0.80901 0.48415,0.24103 1.11148,-0.17044 1.625,0 0.72623,0.24103 0.98805,1.19519 1.625,1.61799 1.0071,0.6685 2.1674,1.07903 3.25,1.618 l 1.625,0.77787 c 0.5413,0.26949 1.03787,0.66286 1.625,0.80901 2.81234,0.70005 0.48985,-1.02318 3.25,0.80899 0.31848,0.21141 0.54185,0.53952 0.8125,0.809 0.27065,0.26949 0.64133,0.46812 0.8125,0.80899 0.12104,0.24105 -0.19138,0.61845 0,0.80901 0.0261,0.026 2.24058,0 2.4375,0 3.1718,0 0.0879,-0.2405 3.25,0.80899 0.55849,0.18536 1.95843,-0.2385 2.4375,0 0.34235,0.17043 0.47015,0.63856 0.8125,0.809 0.64956,0.32338 1.78794,-0.32338 2.4375,0 0.34235,0.17043 0.47015,0.63855 0.8125,0.809 0.51885,0.2583 2.59646,-0.21691 3.25,0 0.57413,0.19055 1.03788,0.66285 1.625,0.809 1.05028,0.26143 2.19973,-0.26145 3.25,0 0.58712,0.14614 1.03788,0.66284 1.625,0.80899 0.78771,0.19607 1.66722,-0.25565 2.4375,0 0.57414,0.19056 1.03788,0.66285 1.625,0.809 0.52514,0.13071 1.05245,0 1.59375,0 0.27065,0 0.57042,-0.12052 0.8125,0 2.47605,1.23271 -1.48336,0.642 2.4375,1.61799 0.52514,0.13072 1.0837,0 1.625,0 0.27065,0 0.57042,-0.12052 0.8125,0 0.34234,0.17044 0.47015,0.63856 0.8125,0.809 0.24207,0.12051 0.62112,-0.19056 0.8125,0 0.42793,0.42608 -0.79602,1.69875 0.8125,1.618 0.50354,0.33425 1.12145,0.47474 1.625,0.80899 0.34416,0.22845 2.26953,2.09251 2.4375,2.427 0.12104,0.24103 -0.19138,0.61843 0,0.80899 0.42794,0.42609 1.19707,0.38292 1.625,0.809 1.67995,1.67266 -2.56664,-0.0643 0.8125,1.618 0.24208,0.12051 0.57042,-0.12053 0.8125,0 0.34235,0.17044 0.54185,0.53951 0.8125,0.80899 0.27065,0.26949 0.64133,0.46812 0.8125,0.809 0.12104,0.24104 -0.12104,0.56797 0,0.809 0.17117,0.34087 0.64133,0.46812 0.8125,0.809 0.24208,0.48206 -0.24208,1.13592 0,1.61798 0.17117,0.34089 0.64133,0.46813 0.8125,0.80901 0.24208,0.48206 -0.24208,1.13592 0,1.61799 0.17117,0.34088 0.64133,0.46812 0.8125,0.809 0.12104,0.24103 0,0.53951 0,0.809 l 0,0.80899 c 0,0.81415 -0.14967,4.4069 0,4.85399 0.12104,0.36155 0.69146,0.44745 0.8125,0.809 0.13149,0.39276 0,4.83759 0,5.66298 l 0,12.10384 0,10.51697 c 0,0.57303 0.10496,4.64496 0,4.85398 -0.17118,0.34088 -0.64133,0.46812 -0.8125,0.809 -0.24208,0.48206 0.24208,1.13592 0,1.61799 -0.17117,0.34087 -0.64133,0.46813 -0.8125,0.80901 -0.23931,0.47655 0.23576,4.3845 0,4.85398 -0.12104,0.24103 -0.62112,-0.19056 -0.8125,0 -7.7e-4,7.7e-4 10e-4,2.42301 0,2.42699 -0.12104,0.36156 -0.64133,0.46812 -0.8125,0.80899 -0.12104,0.24104 0.12104,0.56796 0,0.80901 -0.17117,0.34087 -0.64133,0.46812 -0.8125,0.80899 -0.12104,0.24104 0.12104,0.56796 0,0.809 -0.17117,0.34087 -0.64132,0.46812 -0.8125,0.80899 -0.27065,0.53897 0.72568,2.5191 -0.8125,2.427 -0.21231,0.3171 -0.60018,0.4919 -0.8125,0.80899 -0.6714,1.00277 -0.9536,2.23323 -1.625,3.236 -0.21231,0.31709 -0.60018,0.49189 -0.8125,0.809 -0.3357,0.50137 -0.4768,1.0855 -0.8125,1.58688 -0.21231,0.31709 -0.64132,0.46813 -0.8125,0.80899 -0.12103,0.24104 0.12104,0.56797 0,0.809 -0.34234,0.68175 -1.28266,0.93625 -1.625,1.61799 -0.12104,0.24104 0.19137,0.61844 0,0.809 -1.68,1.67272 0.0646,-2.55557 -1.625,0.80899 -0.12104,0.24104 0.12103,0.56797 0,0.80901 -0.48717,0.97013 -1.95033,1.45684 -2.4375,2.42698 -0.12104,0.24105 0.19138,0.61845 0,0.80901 -0.19138,0.19055 -0.62112,-0.19056 -0.8125,0 -0.19138,0.19055 0.19138,0.61843 0,0.80899 -0.19138,0.19056 -0.57043,-0.12052 -0.8125,0 -0.34235,0.17043 -0.47015,0.63857 -0.8125,0.809 -0.24208,0.12052 -0.57042,-0.12052 -0.8125,0 -0.34235,0.17043 -0.47015,0.63856 -0.8125,0.80899 -0.24208,0.12052 -0.55574,-0.0853 -0.8125,0 -0.57414,0.19056 -1.01961,0.61845 -1.59375,0.80901 -0.51352,0.17043 -1.14085,-0.24104 -1.625,0 -0.34235,0.17043 -0.47015,0.63855 -0.8125,0.80899 -0.24208,0.12052 -0.54185,0 -0.8125,0 l -0.8125,0 -5.6875,0 -6.5,0 c -0.42459,0 -3.0365,0.10629 -3.25,0 -0.34235,-0.17044 -0.44938,-0.68848 -0.8125,-0.80899 -0.51352,-0.17043 -1.0837,0 -1.625,0 l -1.625,0 -5.6875,0 -4.875,0 -0.8125,0 c -0.27065,0 -0.57043,-0.12053 -0.8125,0 -0.34235,0.17043 -0.47015,0.63855 -0.8125,0.80899 -0.48415,0.24104 -1.14085,-0.24103 -1.625,0 -3.37914,1.68232 0.86745,-0.0547 -0.8125,1.618 -0.19138,0.19055 -0.57042,-0.12052 -0.8125,0 -0.34235,0.17043 -0.49403,0.59759 -0.8125,0.809 -0.50355,0.33425 -1.12145,0.47474 -1.625,0.80899 -0.31847,0.21139 -0.54185,0.53952 -0.8125,0.80899 -0.27065,0.26949 -0.64132,0.46813 -0.8125,0.80901 -0.12104,0.24102 0.12104,0.56796 0,0.80899 -0.0918,0.18291 -0.22028,0.32894 -0.375,0.46673 l 134.46875,109.61915 95.9375,0 131.34375,-249.60681 0,-205.32977 c 8.2e-4,-1.3e-4 -0.64479,-0.73262 -0.65625,-0.74676 l -65.0625,0.37338 c 0.002,-0.0327 0.0179,-0.0755 0,-0.0933 -0.0239,-0.0238 -0.0635,0.0151 -0.0937,0 -0.0428,-0.0213 -0.0509,-0.072 -0.0937,-0.0933 -0.0605,-0.0301 -0.17095,0.0476 -0.21875,0 -0.0239,-0.0238 0.0239,-0.0695 0,-0.0933 -0.0239,-0.0238 -0.0634,0.0151 -0.0937,0 -0.0428,-0.0213 -0.0509,-0.072 -0.0937,-0.0933 -0.0367,-0.0182 -0.4294,0 -0.5,0 l -1.21875,0 -0.8125,0 c -0.0531,0 -0.37955,-0.0133 -0.40625,0 -0.0188,0.009 -0.0444,0.0154 -0.0625,0.031 l -0.71875,-0.59119 0.40625,0.56008 0.125,0.0933 c -0.0132,0.005 -0.0191,0.0251 -0.0312,0.031 l -0.0937,-0.1243 -193.40625,-157.63003 z"
       id="rect6921"
       inkscape:connector-curvature="0"
       inkscape:export-filename="/home/geecko/Pictures/icon.png"
       inkscape:export-xdpi="190"
       inkscape:export-ydpi="190" />
  </g>
  <g
     inkscape:groupmode="layer"
     id="layer5"
     inkscape:label="Shadow"
     style="display:inline"
     transform="translate(-111.57204,-154.01426)">
    <path
       style="fill:url(#linearGradient7051);fill-opacity:1;fill-rule:evenodd;stroke:none"
       d="m 483.625,257.84375 -22.1875,40 0,50.21875 -4.96875,0 159.84375,151.53125 0,-139.15625 L 483.625,257.84375 z"
       id="rect6070"
       inkscape:export-filename="/home/geecko/Pictures/icon.png"
       inkscape:export-xdpi="190"
       inkscape:export-ydpi="190"
       inkscape:connector-curvature="0" />
  </g>
  <g
     inkscape:groupmode="layer"
     id="layer3"
     inkscape:label="Bent"
     style="display:inline"
     transform="translate(-111.57204,-154.01426)">
    <path
       style="fill:#fadb83;fill-opacity:1;fill-rule:nonzero;stroke:url(#linearGradient7053);stroke-width:3.21286941;stroke-linejoin:miter;stroke-miterlimit:4;stroke-opacity:1;stroke-dasharray:none;stroke-dashoffset:0;marker-start:none"
       clip-path="none"
       d="m 487.34852,357.89128 c -3.5423,0 -6.98715,-0.32428 -10.32304,-1.01016 -3.33601,-0.68588 -6.54097,-1.72692 -9.60312,-3.03049 -3.06203,-1.30356 -5.96217,-2.87452 -8.68271,-4.72755 -2.72074,-1.85304 -5.25108,-3.96912 -7.56258,-6.30343 -2.31141,-2.3343 -4.40678,-4.88945 -6.24199,-7.63681 -1.83493,-2.74739 -3.43055,-5.676 -4.72136,-8.76823 -1.29087,-3.09222 -2.2819,-6.36908 -2.96101,-9.73797 -0.67932,-3.36887 -1.04019,-6.84753 -1.04019,-10.42487 l 0,-150.47381 1.72049,0 c 9.22198,10.32255 44.51071,49.96177 178.21645,200.7799 l 0,1.33342 -128.80103,0 z"
       id="path5508"
       inkscape:connector-curvature="0"
       inkscape:export-filename="/home/geecko/Pictures/icon.png"
       inkscape:export-xdpi="190"
       inkscape:export-ydpi="190" />
  </g>
  <g
     inkscape:groupmode="layer"
     id="layer7"
     inkscape:label="Lines"
     style="display:inline"
     transform="translate(-111.57204,-154.01426)">
    <rect
       style="fill:#ffffff;fill-opacity:1;fill-rule:evenodd;stroke:none"
       id="rect6506"
       width="250"
       height="35"
       x="165"
       y="332.36218"
       inkscape:export-filename="/home/geecko/Pictures/icon.png"
       inkscape:export-xdpi="190"
       inkscape:export-ydpi="190" />
    <rect
       style="fill:#ffffff;fill-opacity:1;fill-rule:evenodd;stroke:none"
       id="rect6506-1"
       width="340"
       height="35"
       x="165"
       y="412.36218"
       inkscape:export-filename="/home/geecko/Pictures/icon.png"
       inkscape:export-xdpi="190"
       inkscape:export-ydpi="190" />
    <rect
       style="fill:#ffffff;fill-opacity:1;fill-rule:evenodd;stroke:none"
       id="rect6506-1-2"
       width="340"
       height="35"
       x="165"
       y="492.36218"
       inkscape:export-filename="/home/geecko/Pictures/icon.png"
       inkscape:export-xdpi="190"
       inkscape:export-ydpi="190" />
    <rect
       style="fill:#ffffff;fill-opacity:1;fill-rule:evenodd;stroke:none"
       id="rect6506-1-2-5"
       width="340"
       height="35"
       x="165"
       y="572.36218"
       inkscape:export-filename="/home/geecko/Pictures/icon.png"
       inkscape:export-xdpi="190"
       inkscape:export-ydpi="190" />
    <rect
       style="fill:#ffffff;fill-opacity:1;fill-rule:evenodd;stroke:none"
       id="rect6506-1-2-7"
       width="340"
       height="35"
       x="165"
       y="652.36218"
       inkscape:export-filename="/home/geecko/Pictures/icon.png"
       inkscape:export-xdpi="190"
       inkscape:export-ydpi="190" />
  </g>
  <g
     inkscape:groupmode="layer"
     id="layer6"
     inkscape:label="MusicKey"
     style="display:inline"
     transform="translate(-111.57204,-154.01426)">
    <path
       style="fill:#b71c1c;fill-opacity:1;filter:url(#filter6896)"
       d="m 288.68947,720.07386 c -10.37347,-0.61056 -21.28713,-4.40584 -29.89648,-10.3967 -5.01038,-3.48646 -9.5702,-8.03285 -12.84012,-12.80232 -6.28057,-9.16093 -8.78167,-20.19369 -7.18448,-31.69185 0.55162,-3.97101 1.73121,-8.66009 3.01298,-11.97701 1.96117,-5.07502 5.34652,-9.54713 9.13228,-12.0639 5.42534,-3.60678 11.99378,-4.43807 18.68834,-2.36531 1.83084,0.56689 5.20027,2.27695 6.6827,3.39168 4.9506,3.72268 7.73477,8.45557 8.35327,14.20003 0.48074,4.46526 -0.99844,9.56842 -4.2211,14.56259 -1.74965,2.71138 -2.30247,4.28934 -2.30247,6.57212 0,4.06071 2.55557,7.77689 6.75851,9.82787 4.14423,2.02232 9.06012,1.87654 11.89047,-0.35263 1.01174,-0.7968 2.01476,-2.40812 3.31949,-5.33247 1.66279,-3.72696 2.04508,-5.16478 2.67361,-10.05592 0.82457,-6.41663 1.17832,-14.00354 1.18267,-25.3643 0.004,-10.55861 -0.12687,-13.01991 -0.86234,-16.21464 -0.72189,-3.13577 -1.58922,-4.77972 -2.99046,-5.66842 -1.1324,-0.71815 -2.05051,-0.99958 -6.1491,-1.88518 -16.86049,-3.64296 -28.02787,-7.26542 -38.00667,-12.32838 -7.03217,-3.568 -11.67638,-6.74596 -18.68529,-12.78626 -2.78293,-2.39826 -9.00637,-8.58003 -11.3457,-11.26965 -10.11627,-11.63107 -17.21777,-24.09651 -21.85496,-38.36272 -4.14366,-12.7478 -5.84856,-26.21769 -5.11746,-40.4318 1.9209,-37.34687 21.84848,-73.62074 53.10732,-96.67059 1.00583,-0.74166 4.01138,-2.91336 6.679,-4.82588 2.66763,-1.91259 5.95942,-4.30858 7.3151,-5.32449 5.16944,-3.87375 9.16735,-6.58445 14.78921,-10.02777 5.12224,-3.13731 7.48307,-4.78925 9.28229,-6.49517 1.14136,-1.08216 2.64402,-3.00667 3.05662,-3.9148 0.55183,-1.21453 0.76295,-3.12833 0.64856,-5.87938 -0.21044,-5.06128 -1.219,-10.81679 -3.99949,-22.82354 -1.90348,-8.21961 -2.71453,-13.57599 -3.45543,-22.82079 -0.27129,-3.38506 -0.27149,-16.90554 0,-20.43455 0.978,-12.72721 2.82571,-23.78279 5.75406,-34.42863 5.6883,-20.67953 15.13068,-39.61372 26.66469,-53.46897 2.10185,-2.52486 7.20748,-7.61505 9.35858,-9.33029 5.4331,-4.33223 10.6089,-6.83453 15.50482,-7.496 7.61351,-1.0286 14.26307,1.63769 20.68023,8.29221 2.66597,2.76461 4.87643,5.75584 8.21398,11.11544 11.50045,18.46792 18.52704,35.92213 21.43957,53.25638 1.12115,6.67269 1.5651,12.05042 1.56356,18.9404 -10e-4,9.97373 -1.15103,19.17129 -3.72001,29.7825 -4.55795,18.82685 -11.68975,34.37998 -21.5858,47.07479 -3.83952,4.92535 -7.40156,8.5233 -15.22134,15.37471 -5.81746,5.09706 -11.05383,10.21367 -13.18408,12.88271 -3.70964,4.64776 -5.98315,9.08162 -7.01257,13.67604 -0.32846,1.46596 -0.45931,2.60862 -0.56445,4.92972 -0.16867,3.72295 -0.19623,32.47343 -0.0312,32.57504 0.0655,0.0402 1.22847,0.22797 2.58413,0.41689 5.03446,0.70147 11.39059,2.21304 16.61798,3.95198 20.34831,6.76916 36.21502,18.94359 46.0481,35.33239 6.23082,10.38497 10.0316,22.18105 11.58567,35.95737 0.79055,7.00789 0.79284,11.89667 0.009,18.50825 -2.04993,17.28395 -8.67192,32.92992 -19.27101,45.53228 -11.87929,14.12453 -28.97753,24.53275 -49.94725,30.40436 -1.59244,0.44588 -3.05638,0.87664 -3.25317,0.95716 -0.34964,0.14309 -0.35782,0.20366 -0.35937,2.65444 -0.003,5.86885 -0.69296,20.91318 -1.43727,31.37083 -1.23058,17.28978 -2.83753,29.68481 -4.67708,36.07585 -2.98484,10.37012 -9.47114,18.37523 -18.69178,23.0686 -5.4167,2.75714 -10.99778,4.20528 -17.81066,4.62136 -2.9033,0.17733 -3.66789,0.17558 -6.91753,-0.016 z m 13.87508,-183.06259 c 0.0369,-46.65604 0.0199,-50.54231 -0.2201,-50.63449 -0.39255,-0.15059 -4.21852,0.52132 -6.44929,1.13275 -6.14248,1.68348 -11.67975,4.94445 -16.34957,9.62858 -6.21449,6.23362 -11.15115,15.39219 -13.66966,25.36022 -0.33051,1.30813 -0.67367,2.40268 -0.76258,2.4323 -0.18259,0.061 -1.43168,-2.81577 -2.48796,-5.72979 -3.2453,-8.95285 -4.08301,-18.07202 -2.39173,-26.03549 2.77905,-13.08524 12.17325,-24.66907 27.34264,-33.71564 4.04009,-2.40945 10.06321,-5.30881 13.8797,-6.68138 0.54933,-0.19756 1.02636,-0.40383 1.06007,-0.45836 0.0337,-0.0543 -0.10984,-6.96764 -0.31899,-15.36244 -0.20913,-8.39482 -0.38204,-15.56745 -0.38422,-15.93918 -0.002,-0.49245 -0.0686,-0.67588 -0.24206,-0.67588 -0.33069,0 -4.82844,1.98334 -8.3093,3.664 -15.29924,7.38707 -27.98342,16.9851 -37.41174,28.30914 -12.21604,14.67225 -19.31517,32.02259 -21.01278,51.35533 -0.2615,2.97793 -0.26052,11.3044 10e-4,13.59657 0.26082,2.28076 1.12641,6.99436 1.85435,10.09797 1.84697,7.8745 4.0395,14.19917 7.1408,20.59867 3.09482,6.38608 6.69958,11.88836 10.98798,16.77192 2.13967,2.43659 5.88379,6.03011 8.34444,8.00888 2.25886,1.81645 6.55715,4.73813 9.00417,6.12048 6.54704,3.69843 14.6354,6.5827 22.08497,7.87544 2.73518,0.47462 6.38489,0.86772 7.71265,0.8306 l 0.55658,-0.0154 0.04,-50.53474 z m 34.78617,48.95495 c 12.91498,-3.14025 24.68862,-10.38342 32.19911,-19.80896 6.67406,-8.37578 10.26881,-18.51168 10.81015,-30.48071 0.13195,-2.91719 -0.007,-8.97268 -0.2447,-10.7064 -0.27862,-2.02754 -1.66524,-6.49006 -2.90285,-9.34206 -6.57237,-15.14595 -18.6961,-25.13628 -34.85246,-28.71946 -2.47336,-0.54859 -6.39832,-1.13906 -6.72871,-1.0123 -0.25098,0.0963 -0.26834,3.34123 -0.26834,50.17398 0,27.53902 0.0478,50.11867 0.10605,50.17694 0.14544,0.1455 0.0992,0.15241 1.88176,-0.28103 z m -8.26118,-220.98908 c 9.36877,-5.69984 16.80323,-12.83735 22.54793,-21.64733 1.90282,-2.91816 2.70197,-4.32856 4.34267,-7.66413 8.13582,-16.54041 10.33311,-37.21618 6.32202,-59.48821 -1.55354,-8.62613 -4.80241,-20.03457 -7.76077,-27.25184 -1.02952,-2.51163 -3.06703,-6.4881 -4.24773,-8.28996 -1.11753,-1.70549 -3.47934,-4.17157 -4.63812,-4.84288 -0.68335,-0.3959 -0.80766,-0.4201 -1.23918,-0.24137 -1.57724,0.65332 -7.14987,8.17118 -11.31279,15.26176 -3.72034,6.33675 -7.11596,13.23815 -9.4282,19.16236 -3.8168,9.77906 -6.65965,22.00734 -7.63428,32.83841 -0.54509,6.05745 -0.57925,15.30511 -0.0787,21.30917 1.10697,13.27838 4.64836,27.87585 10.15614,41.86298 0.0948,0.24056 0.26704,0.43731 0.38296,0.43731 0.11591,0 1.28053,-0.6508 2.58807,-1.44627 z"
       id="path6503"
       inkscape:connector-curvature="0"
       inkscape:export-filename="/home/geecko/Pictures/icon.png"
       inkscape:export-xdpi="190"
       inkscape:export-ydpi="190" />
  </g>
</svg>
